<svg xmlns="http://www.w3.org/2000/svg" viewBox="0 0 100 100" width="100" height="100">
  <defs><style>.path { fill: #fff; }</style></defs>
  <g id="mid-to-north-west">
    <path class="path" d="M145.5894,142.4914c-.1287.6746-.29,1.2426-.479,2.0836C148.771,146.316,149.2641,142.24,145.5894,142.4914Zm-.7285-.2046a3.9532,3.9532,0,0,1-1.3053-1.0118,2.7879,2.7879,0,0,0-1.5668-1.0971c-1.4475-.5163-2.556-.4813-3.13.0989-1.0555,1.3351.2769,2.3452,1.3074,2.9874.5416.42,3.3447,1.3776,4.1171,1.0244.1889-.6762.3745-1.34.5776-2.0018Z" transform="translate(-100 -100)"/>
    <path class="path" d="M140.1033,133.2476c-.634.5839-1.0451,1.0078-1.565,1.4566C140.1581,138.0122,143.4414,135.5473,140.1033,133.2476Zm-2.1064.928c.4715-.5068.9537-1,1.4448-1.5012-.08-.8454-2.3111-2.7942-2.9457-3.0533-1.0714-.5713-2.6124-1.22-3.2408.3615-.2155.7872.3084,1.7648,1.4793,2.76a2.7881,2.7881,0,0,0,1.7335.8083,3.9553,3.9553,0,0,1,1.5289.6246Z" transform="translate(-100 -100)"/>
    <path class="path" d="M128.2689,132.4914c-.1287.6746-.29,1.2426-.479,2.0836C131.4505,136.316,131.9436,132.24,128.2689,132.4914Zm-.7285-.2046a3.9532,3.9532,0,0,1-1.3053-1.0118,2.7879,2.7879,0,0,0-1.5668-1.0971c-1.4475-.5163-2.556-.4813-3.13.0989-1.0555,1.3351.2769,2.3452,1.3073,2.9874.5417.42,3.3448,1.3776,4.1172,1.0244.1889-.6762.3745-1.34.5776-2.0018Z" transform="translate(-100 -100)"/>
    <path class="path" d="M122.7828,123.2476c-.634.5839-1.0451,1.0078-1.565,1.4566C122.8376,128.0122,126.1209,125.5473,122.7828,123.2476Zm-2.1064.928c.4715-.5068.9537-.9995,1.4448-1.5012-.08-.8454-2.3111-2.7942-2.9457-3.0533-1.0714-.5713-2.6124-1.22-3.2408.3615-.2155.7872.3084,1.7648,1.4793,2.76a2.7881,2.7881,0,0,0,1.7335.8083,3.9553,3.9553,0,0,1,1.5289.6246Z" transform="translate(-100 -100)"/>
  </g>
</svg>