<svg xmlns="http://www.w3.org/2000/svg" viewBox="0 0 100 100" width="100" height="100">
  <defs><style>.path { fill: #fff; }</style></defs>
  <g id="mid-to-south-east">
    <path class="path" d="M155.03,144.2586c.1287-.6746.29-1.2426.479-2.0836C151.8485,140.434,151.3554,144.51,155.03,144.2586Zm.7285.2046a3.9532,3.9532,0,0,1,1.3053,1.0118,2.7885,2.7885,0,0,0,1.5669,1.0971c1.4474.5163,2.5559.4813,3.13-.0989,1.0556-1.3351-.2768-2.3452-1.3073-2.9874-.5417-.42-3.3448-1.3776-4.1171-1.0244-.1889.6762-.3745,1.34-.5777,2.0018Z" transform="translate(-100 -100)"/>
    <path class="path" d="M160.5162,153.5024c.634-.5839,1.0451-1.0078,1.565-1.4566C160.4615,148.7378,157.1782,151.2027,160.5162,153.5024Zm2.1064-.928c-.4715.5068-.9536,1-1.4448,1.5012.08.8454,2.3112,2.7942,2.9458,3.0533,1.0713.5713,2.6123,1.22,3.2407-.3615.2156-.7872-.3084-1.7648-1.4793-2.76a2.7877,2.7877,0,0,0-1.7335-.8083,3.956,3.956,0,0,1-1.5289-.6246Z" transform="translate(-100 -100)"/>
    <path class="path" d="M172.3506,154.2586c.1287-.6746.29-1.2426.479-2.0836C169.169,150.434,168.6759,154.51,172.3506,154.2586Zm.7285.2046a3.9532,3.9532,0,0,1,1.3053,1.0118,2.7885,2.7885,0,0,0,1.5669,1.0971c1.4474.5163,2.5559.4813,3.13-.0989,1.0556-1.3351-.2768-2.3452-1.3073-2.9874-.5417-.42-3.3448-1.3776-4.1171-1.0244-.1889.6762-.3745,1.34-.5777,2.0018Z" transform="translate(-100 -100)"/>
    <path class="path" d="M177.8367,163.5024c.634-.5839,1.0451-1.0078,1.565-1.4566C177.782,158.7378,174.4987,161.2027,177.8367,163.5024Zm2.1064-.928c-.4715.5068-.9536,1-1.4448,1.5012.08.8454,2.3112,2.7942,2.9458,3.0533,1.0713.5713,2.6123,1.22,3.2407-.3615.2156-.7872-.3084-1.7648-1.4793-2.76a2.7877,2.7877,0,0,0-1.7335-.8083,3.956,3.956,0,0,1-1.5289-.6246Z" transform="translate(-100 -100)"/>
  </g>
</svg>