<svg xmlns="http://www.w3.org/2000/svg" viewBox="0 0 100 100" width="100" height="100">
  <defs><style>.path { fill: #fff; }</style></defs>
  <g id="mid-to-south-west">
    <path class="path" d="M146.85,146.9466c.52.4488.931.8727,1.565,1.4567C151.7528,146.1036,148.47,143.6386,146.85,146.9466Zm-.5414.5286a3.9553,3.9553,0,0,1-1.5289.6246,2.7879,2.7879,0,0,0-1.7335.8083c-1.1709.9954-1.6948,1.9729-1.4793,2.76.6284,1.5817,2.1694.9328,3.2407.3615.6347-.2591,2.8655-2.2078,2.9458-3.0533-.4911-.5017-.9733-.9944-1.4448-1.5012Z" transform="translate(-100 -100)"/>
    <path class="path" d="M136.1013,147.0758c.1887.841.35,1.409.479,2.0837C140.255,149.4107,139.7619,145.3348,136.1013,147.0758Zm-.25,2.2882c-.2032-.6617-.3887-1.3256-.5777-2.0018-.7723-.3532-3.5754.6044-4.1171,1.0244-1.03.6422-2.3629,1.6523-1.3073,2.9874.574.58,1.6825.6153,3.13.0989a2.7879,2.7879,0,0,0,1.5668-1.0971,3.9532,3.9532,0,0,1,1.3053-1.0118Z" transform="translate(-100 -100)"/>
    <path class="path" d="M129.5292,156.9466c.52.4488.931.8727,1.565,1.4567C134.4323,156.1036,131.149,153.6386,129.5292,156.9466Zm-.5414.5286a3.956,3.956,0,0,1-1.5289.6246,2.7877,2.7877,0,0,0-1.7335.8083c-1.1709.9954-1.6948,1.9729-1.4793,2.76.6284,1.5817,2.1694.9328,3.2407.3615.6347-.2591,2.8655-2.2078,2.9458-3.0533-.4912-.5017-.9733-.9944-1.4448-1.5012Z" transform="translate(-100 -100)"/>
    <path class="path" d="M118.7808,157.0758c.1887.841.35,1.409.479,2.0837C122.9345,159.4107,122.4414,155.3348,118.7808,157.0758Zm-.2495,2.2882c-.2032-.6617-.3887-1.3256-.5777-2.0018-.7723-.3532-3.5754.6044-4.1171,1.0244-1.0305.6422-2.3629,1.6523-1.3073,2.9874.574.58,1.6825.6153,3.13.0989a2.7882,2.7882,0,0,0,1.5668-1.0971,3.9532,3.9532,0,0,1,1.3053-1.0118Z" transform="translate(-100 -100)"/>
  </g>
</svg>