<svg xmlns="http://www.w3.org/2000/svg" viewBox="0 0 100 100" width="100" height="100">
  <defs><style>.path { fill: #fff; }</style></defs>
  <g id="mid-to-south">
    <path class="path" d="M151.3631,148.2015c.6486-.2258,1.2213-.37,2.044-.627C153.0845,143.5338,149.3081,145.1448,151.3631,148.2015Zm.187.7332a3.9535,3.9535,0,0,1-.2235,1.6363,2.7882,2.7882,0,0,0-.1667,1.9055c.2765,1.5117.8611,2.4542,1.6506,2.6611,1.684.2467,1.8926-1.4123,1.9335-2.6258.0929-.6791-.4793-3.5855-1.1714-4.0777-.68.1745-1.3478.3457-2.0224.5006Z" transform="translate(-100 -100)"/>
    <path class="path" d="M146.1007,157.5745c.8228.2571,1.3954.4012,2.044.627C150.2,155.1448,146.4233,153.5338,146.1007,157.5745Zm1.8569,1.36c-.6746-.1549-1.3423-.3261-2.0224-.5006-.6921.4922-1.2643,3.3986-1.1714,4.0777.0409,1.2135.2495,2.8725,1.9335,2.6258.7895-.2069,1.3741-1.1494,1.6506-2.6611a2.7876,2.7876,0,0,0-.1667-1.9055,3.9535,3.9535,0,0,1-.2235-1.6363Z" transform="translate(-100 -100)"/>
    <path class="path" d="M151.3631,168.2015c.6486-.2258,1.2213-.37,2.044-.627C153.0845,163.5338,149.3081,165.1448,151.3631,168.2015Zm.187.7332a3.9535,3.9535,0,0,1-.2235,1.6363,2.7882,2.7882,0,0,0-.1667,1.9055c.2765,1.5117.8611,2.4542,1.6506,2.6611,1.684.2467,1.8926-1.4123,1.9335-2.6258.0929-.6791-.4793-3.5855-1.1714-4.0777-.68.1745-1.3478.3457-2.0224.5006Z" transform="translate(-100 -100)"/>
    <path class="path" d="M146.1007,177.5745c.8228.2571,1.3954.4012,2.044.627C150.2,175.1448,146.4233,173.5338,146.1007,177.5745Zm1.8569,1.36c-.6746-.1549-1.3423-.3261-2.0224-.5006-.6921.4922-1.2643,3.3986-1.1714,4.0777.0409,1.2135.2495,2.8725,1.9335,2.6258.7895-.2069,1.3741-1.1494,1.6506-2.6611a2.7876,2.7876,0,0,0-.1667-1.9055,3.9535,3.9535,0,0,1-.2235-1.6363Z" transform="translate(-100 -100)"/>
  </g>
</svg>