<svg xmlns="http://www.w3.org/2000/svg" viewBox="0 0 100 100" width="100" height="100">
  <defs><style>.path { fill: #fff; }</style></defs>
  <g id="north-west-to-mid">
    <path class="path" d="M117.5433,122.6261c.1286-.6747.29-1.2427.4789-2.0837C114.3616,118.8014,113.8685,122.8773,117.5433,122.6261Zm.7284.2045a3.9546,3.9546,0,0,1,1.3054,1.0118,2.7879,2.7879,0,0,0,1.5668,1.0971c1.4474.5164,2.556.4813,3.13-.0989,1.0556-1.3351-.2768-2.3452-1.3073-2.9873-.5417-.42-3.3448-1.3777-4.1171-1.0245-.1889.6762-.3745,1.34-.5776,2.0018Z" transform="translate(-100 -100)"/>
    <path class="path" d="M123.0293,131.87c.634-.584,1.0451-1.0079,1.565-1.4567C122.9746,127.1052,119.6913,129.57,123.0293,131.87Zm2.1065-.9281c-.4716.5068-.9537,1-1.4449,1.5012.08.8455,2.3112,2.7942,2.9458,3.0533,1.0713.5714,2.6123,1.22,3.2408-.3615.2155-.7872-.3084-1.7647-1.4793-2.76a2.7881,2.7881,0,0,0-1.7336-.8083,3.955,3.955,0,0,1-1.5289-.6246Z" transform="translate(-100 -100)"/>
    <path class="path" d="M134.8638,132.6261c.1286-.6747.29-1.2427.479-2.0837C131.6821,128.8014,131.1891,132.8773,134.8638,132.6261Zm.7284.2045a3.9546,3.9546,0,0,1,1.3054,1.0118,2.7879,2.7879,0,0,0,1.5668,1.0971c1.4474.5164,2.556.4813,3.13-.0989,1.0556-1.3351-.2768-2.3452-1.3073-2.9873-.5416-.42-3.3447-1.3777-4.1171-1.0245-.1889.6762-.3745,1.34-.5776,2.0018Z" transform="translate(-100 -100)"/>
    <path class="path" d="M140.35,141.87c.634-.584,1.0451-1.0079,1.5651-1.4567C140.2951,137.1052,137.0118,139.57,140.35,141.87Zm2.1065-.9281c-.4716.5068-.9537,1-1.4449,1.5012.08.8455,2.3112,2.7942,2.9458,3.0533,1.0713.5714,2.6123,1.22,3.2408-.3615.2155-.7872-.3084-1.7647-1.4793-2.76a2.7881,2.7881,0,0,0-1.7336-.8083,3.954,3.954,0,0,1-1.5288-.6246Z" transform="translate(-100 -100)"/>
  </g>
</svg>