<svg xmlns="http://www.w3.org/2000/svg" viewBox="0 0 100 100" width="100" height="100">
  <defs><style>.path { fill: #fff; }</style></defs>
  <g id="north-to-mid">
    <path class="path" d="M151.6092,105.0393c.6486-.2259,1.2212-.37,2.044-.627C153.3306,100.3716,149.5542,101.9825,151.6092,105.0393Zm.187.7331a3.9537,3.9537,0,0,1-.2235,1.6364,2.7872,2.7872,0,0,0-.1667,1.9054c.2765,1.5117.8611,2.4542,1.6506,2.6612,1.684.2466,1.8926-1.4124,1.9335-2.6258.0929-.6792-.4793-3.5855-1.1714-4.0778-.68.1745-1.3478.3457-2.0224.5007Z" transform="translate(-100 -100)"/>
    <path class="path" d="M146.3468,114.4123c.8228.2571,1.3954.4011,2.044.627C150.4458,111.9825,146.6694,110.3716,146.3468,114.4123Zm1.8569,1.36c-.6746-.155-1.3423-.3262-2.0224-.5007-.6921.4923-1.2643,3.3986-1.1714,4.0778.0409,1.2134.25,2.8724,1.9335,2.6258.79-.207,1.3741-1.1495,1.6506-2.6612a2.7872,2.7872,0,0,0-.1667-1.9054,3.9537,3.9537,0,0,1-.2235-1.6364Z" transform="translate(-100 -100)"/>
    <path class="path" d="M151.6092,125.0393c.6486-.2259,1.2212-.37,2.044-.627C153.3306,120.3716,149.5542,121.9825,151.6092,125.0393Zm.187.7331a3.9537,3.9537,0,0,1-.2235,1.6364,2.7872,2.7872,0,0,0-.1667,1.9054c.2765,1.5117.8611,2.4542,1.6506,2.6612,1.684.2466,1.8926-1.4124,1.9335-2.6258.0929-.6792-.4793-3.5855-1.1714-4.0778-.68.1745-1.3478.3457-2.0224.5007Z" transform="translate(-100 -100)"/>
    <path class="path" d="M146.3468,134.4123c.8228.2571,1.3954.4011,2.044.627C150.4458,131.9825,146.6694,130.3716,146.3468,134.4123Zm1.8569,1.36c-.6746-.155-1.3423-.3262-2.0224-.5007-.6921.4923-1.2643,3.3986-1.1714,4.0778.0409,1.2134.25,2.8724,1.9335,2.6258.79-.207,1.3741-1.15,1.6506-2.6612a2.7872,2.7872,0,0,0-.1667-1.9054,3.9537,3.9537,0,0,1-.2235-1.6364Z" transform="translate(-100 -100)"/>
  </g>
</svg>