<svg xmlns="http://www.w3.org/2000/svg" viewBox="0 0 100 100" width="100" height="100">
  <defs><style>.path { fill: #fff; }</style></defs>
  <g id="south-west-to-mid">
    <path class="path" d="M115.5307,161.131c-.52-.4487-.931-.8727-1.565-1.4566C110.6277,161.9741,113.911,164.439,115.5307,161.131Zm.5415-.5286a3.9538,3.9538,0,0,1,1.5288-.6245,2.7889,2.7889,0,0,0,1.7336-.8084c1.1709-.9953,1.6948-1.9729,1.4793-2.76-.6285-1.5817-2.1695-.9328-3.2408-.3615-.6346.2591-2.8655,2.2079-2.9458,3.0533.4912.5018.9733.9944,1.4449,1.5012Z" transform="translate(-100 -100)"/>
    <path class="path" d="M126.2792,161.0018c-.1888-.841-.35-1.409-.479-2.0836C122.1255,158.6669,122.6185,162.7428,126.2792,161.0018Zm.2495-2.2882c.2031.6618.3887,1.3256.5776,2.0019.7724.3531,3.5755-.6045,4.1171-1.0245,1.03-.6421,2.3629-1.6523,1.3073-2.9874-.5739-.58-1.6825-.6152-3.13-.0989a2.7879,2.7879,0,0,0-1.5668,1.0971,3.9546,3.9546,0,0,1-1.3054,1.0118Z" transform="translate(-100 -100)"/>
    <path class="path" d="M132.8513,151.131c-.52-.4487-.931-.8727-1.5651-1.4566C127.9482,151.9741,131.2315,154.439,132.8513,151.131Zm.5414-.5286a3.9538,3.9538,0,0,1,1.5288-.6245,2.7889,2.7889,0,0,0,1.7336-.8084c1.1709-.9953,1.6948-1.9729,1.4793-2.76-.6284-1.5817-2.1695-.9328-3.2408-.3615-.6346.2591-2.8654,2.2079-2.9458,3.0533.4912.5018.9733.9944,1.4449,1.5012Z" transform="translate(-100 -100)"/>
    <path class="path" d="M143.6,151.0018c-.1887-.841-.35-1.409-.479-2.0836C139.446,148.6669,139.939,152.7428,143.6,151.0018Zm.2495-2.2882c.2031.6618.3887,1.3256.5776,2.0019.7724.3531,3.5755-.6045,4.1171-1.0245,1.03-.6421,2.3629-1.6523,1.3073-2.9874-.5739-.58-1.6825-.6152-3.13-.0989a2.7879,2.7879,0,0,0-1.5668,1.0971,3.9553,3.9553,0,0,1-1.3053,1.0118Z" transform="translate(-100 -100)"/>
  </g>
</svg>